<svg xmlns="http://www.w3.org/2000/svg" width="1898" height="502" viewBox="0 0 1898 502" role="img" aria-labelledby="title desc">
  <title id="title">Radroots logotype</title>
  <desc id="desc">Radroots homepage white logotype</desc>
  <path clip-rule="evenodd" d="M 228.306 418.594 C 226.409 413.652 225.226 408.454 224.63 403.174 C 223.758 395.445 224.145 387.539 225.856 380.006 C 228.713 367.431 235.26 355.896 242.207 344.9 C 250.353 332.004 259.05 319.849 275.143 313.631 C 292.562 306.901 318.646 307.126 318.934 291.305 C 318.967 289.488 318.66 287.459 317.923 285.751 C 315.112 279.232 306.05 277.374 301.441 271.882 C 298.245 268.074 297.191 262.519 297.712 257.42 C 298.461 250.079 302.477 243.681 307.196 238.123 C 312.473 231.907 318.629 226.741 325.299 222.295 C 335.486 215.507 346.87 210.4 358.615 206.843 C 372.684 202.583 387.272 200.547 402.023 199.719 C 416.142 198.927 430.41 199.242 443.946 203.58 C 452.134 206.203 460.053 210.299 465.909 216.469 C 471.381 222.234 475.051 229.81 476.797 237.625 C 478.6 245.7 478.35 254.031 477.362 262.201 C 474.11 289.111 462.858 314.278 456.448 340.418 C 455.002 346.314 453.802 352.259 454.533 358.579 C 454.982 362.469 456.163 366.501 458.967 368.908 C 461.538 371.115 465.472 371.955 468.919 371.584 C 476.885 370.728 482.248 363.408 487.608 356.826 C 494.281 348.631 500.948 341.581 505.475 333.16 C 511.736 321.515 513.906 307.248 518.898 294.409 C 523.041 283.755 529.127 274.084 535.797 264.869 C 541.829 256.536 548.338 248.576 555.532 241.256 C 562.464 234.203 570.031 227.744 578.209 222.148 C 585.776 216.969 593.866 212.53 602.298 209.002 C 610.9 205.404 619.858 202.754 629.056 200.771 C 641.887 198.003 655.185 196.531 668.091 199.513 C 682.448 202.831 696.319 211.66 710.421 209.293 C 714.587 208.594 718.773 206.918 722.311 204.46 C 726.371 201.64 729.577 197.789 732.405 193.736 C 737.01 187.137 740.615 179.999 742.457 171.966 C 743.867 165.815 744.243 159.139 741.861 153.613 C 739.987 149.265 736.406 145.629 732.511 142.599 C 722.32 134.671 709.982 130.892 699.804 123.643 C 693.916 119.449 688.752 114.095 684.972 107.574 C 681.471 101.535 679.158 94.497 680.106 87.917 C 681.101 81 685.7 74.59 691.155 69.723 C 699.915 61.908 710.883 58.07 721.915 54.82 C 738.4 49.964 755.028 46.419 772.194 45.857 C 781.055 45.568 790.059 46.072 798.306 49.483 C 805.536 52.474 812.184 57.698 815.997 64.359 C 820.088 71.507 820.915 80.31 820.475 88.755 C 819.946 98.892 817.59 108.516 814.832 117.988 C 797.698 176.851 765.066 229.874 739.815 287.113 C 732.988 302.586 726.702 318.367 726.699 335.376 C 726.699 340.761 727.328 346.27 730.013 350.859 C 732.253 354.688 735.923 357.878 740.067 359.425 C 744.964 361.252 750.523 360.786 755.669 359.132 C 768.033 355.157 778.02 344.326 790.776 345.992 C 794.061 346.421 797.53 347.679 799.527 350.067 C 801.888 352.891 802.192 357.296 801.654 361.281 C 800.729 368.137 797.315 373.753 793.739 379.248 C 786.134 390.933 777.799 402.074 768.869 412.781 C 757.614 426.274 745.415 439.078 730.709 449.008 C 723.391 453.949 715.452 458.178 706.849 459.788 C 700.821 460.916 694.467 460.758 688.533 458.784 C 683.459 457.097 678.691 454.083 675.565 449.963 C 670.707 443.561 669.812 434.487 664.388 428.305 C 661.691 425.23 657.873 422.87 654.185 421.762 C 634.394 415.815 618.323 445.903 597.814 454.198 C 591.361 456.808 584.469 457.26 577.574 457.216 C 568.921 457.16 560.263 456.322 552.15 453.585 C 546.807 451.783 541.7 449.158 536.912 446.252 C 531.338 442.87 526.194 439.109 522.666 432.668 C 513.264 415.501 515.33 379.297 501.795 384.542 C 499.768 385.328 497.391 387.042 495.24 388.871 C 483.51 398.845 478.495 412.21 470.357 423.741 C 464.51 432.025 457.051 439.362 449.212 446.104 C 444.748 449.942 440.162 453.587 435.027 456.392 C 430.717 458.746 426.021 460.509 421.04 460.94 C 414.365 461.519 407.179 459.708 402.026 455.741 C 394.649 450.063 391.438 439.969 383.863 434.148 C 381.203 432.105 378.006 430.588 374.908 429.911 C 358.318 426.281 344.589 446.717 328.157 455 C 319.471 459.378 310.03 460.36 300.635 460.404 C 292.864 460.44 285.126 459.834 277.546 458.148 C 267.411 455.892 257.561 451.705 249.196 445.561 C 244.767 442.308 240.755 438.506 237.319 434.22 C 233.544 429.512 230.463 424.218 228.306 418.594 Z M 1437.843 439.528 C 1432.591 432.539 1429.689 423.768 1428.903 415.012 C 1427.953 404.429 1430.096 393.87 1433.441 383.797 C 1438.331 369.075 1445.79 355.391 1454.252 342.658 C 1466.259 324.592 1480.285 308.442 1491.813 289.103 C 1494.908 283.91 1497.823 278.488 1497.74 272.57 C 1497.7 269.652 1496.93 266.614 1495.252 264.275 C 1493.397 261.69 1490.431 259.959 1487.312 258.925 C 1474.825 254.783 1459.876 261.789 1449.239 254.533 C 1447.108 253.079 1445.15 251.053 1444.295 248.659 C 1443.306 245.887 1443.794 242.621 1444.957 239.795 C 1446.638 235.706 1449.73 232.538 1453.167 229.895 C 1456.962 226.976 1461.178 224.698 1465.563 222.96 C 1477.751 218.131 1491.245 217.479 1504.013 214.008 C 1510.556 212.23 1516.908 209.712 1522.639 206.116 C 1528.674 202.33 1534.02 197.349 1538.228 191.601 C 1542.192 186.189 1545.146 180.096 1546.276 173.225 C 1546.876 169.576 1546.961 165.707 1545.385 162.608 C 1544.003 159.889 1541.341 157.762 1538.472 156.314 C 1534.416 154.267 1529.945 153.576 1525.51 153.738 C 1512.388 154.214 1499.588 162.146 1486.646 158.062 C 1482.848 156.864 1479.037 154.63 1477.4 151.264 C 1476.103 148.596 1476.17 145.217 1476.919 142.183 C 1478.219 136.912 1481.575 132.681 1485.071 128.651 C 1492.609 119.959 1500.798 112.194 1509.244 104.648 C 1519.604 95.393 1530.352 86.467 1541.446 78.021 C 1554.138 68.358 1567.283 59.324 1581.443 51.838 C 1590.045 47.291 1599.022 43.315 1608.454 41.172 C 1615.211 39.636 1622.202 39.042 1629.209 39.718 C 1633.552 40.137 1637.901 41.044 1641.619 43.226 C 1645.324 45.401 1648.403 48.842 1650.251 52.749 C 1652.581 57.674 1652.954 63.34 1652.473 68.803 C 1652.053 73.564 1650.985 78.171 1649.568 82.625 C 1640.106 112.38 1615.128 135.263 1599.335 162.509 C 1596.399 167.576 1593.78 172.793 1591.914 178.409 C 1590.419 182.909 1589.408 187.665 1590.021 192.34 C 1590.454 195.639 1591.696 198.898 1593.702 201.555 C 1596.177 204.835 1599.815 207.198 1603.644 208.707 C 1620.576 215.379 1641.261 205.35 1657.545 213.88 C 1660.57 215.465 1663.444 217.691 1664.962 220.68 C 1666.22 223.156 1666.546 226.156 1666.128 228.936 C 1665.351 234.11 1661.997 238.523 1658.202 242.276 C 1653.693 246.737 1648.56 250.266 1642.952 252.646 C 1634.886 256.071 1625.836 257.122 1616.84 257.309 C 1602.847 257.601 1588.985 255.803 1575.611 258.975 C 1570.486 260.191 1565.432 262.136 1560.974 264.958 C 1556.658 267.691 1552.9 271.246 1549.483 275.075 C 1541.004 284.576 1534.623 295.765 1529.297 307.256 C 1525.379 315.708 1522.031 324.324 1519.732 333.509 C 1517.745 341.441 1516.541 349.797 1518.794 357.621 C 1520.528 363.64 1524.308 369.343 1529.467 372.811 C 1533.064 375.227 1537.329 376.558 1541.648 377.177 C 1548.551 378.166 1555.588 377.334 1562.259 375.421 C 1568.623 373.596 1574.653 370.786 1580.313 367.455 C 1594.34 359.202 1606.091 347.751 1620.857 340.112 C 1627.064 336.901 1633.804 334.363 1640.641 334.522 C 1646.851 334.666 1653.14 337.035 1658.286 340.632 C 1667.194 346.86 1672.677 356.769 1680.763 363.864 C 1684.861 367.459 1689.627 370.332 1694.714 372.451 C 1700.628 374.914 1706.976 376.358 1713.328 376.479 C 1719.668 376.599 1726.013 375.402 1731.9 372.43 C 1737.972 369.365 1743.557 364.412 1745.358 358.176 C 1746.945 352.68 1745.594 346.188 1742.586 341.123 C 1740.125 336.978 1736.554 333.79 1732.77 330.947 C 1721.754 322.668 1708.929 317.314 1697.842 309.163 C 1691.633 304.6 1685.97 299.159 1681.601 292.809 C 1679.542 289.816 1677.77 286.621 1676.499 283.218 C 1673.644 275.571 1673.318 266.877 1675.145 258.842 C 1676.976 250.785 1680.971 243.392 1685.991 236.896 C 1690.487 231.079 1695.805 225.982 1701.598 221.5 C 1707.969 216.57 1714.915 212.384 1722.211 208.987 C 1731.344 204.736 1741.026 201.722 1750.877 199.547 C 1759.759 197.585 1768.777 196.304 1777.819 195.732 C 1785.441 195.25 1793.08 195.271 1800.758 195.681 C 1810.571 196.206 1820.447 197.367 1829.651 200.654 C 1834.266 202.302 1838.713 204.485 1842.73 207.367 C 1846.717 210.228 1850.281 213.778 1852.754 217.971 C 1856.41 224.173 1857.679 231.783 1857.223 239.083 C 1856.844 245.154 1855.272 251.01 1852.815 256.479 C 1850.131 262.453 1846.391 267.964 1841.784 272.685 C 1837.299 277.28 1831.993 281.128 1825.912 283.279 C 1818.766 285.807 1810.549 285.993 1803.489 283.654 C 1793.158 280.23 1785.304 271.399 1775.589 266.372 C 1771.235 264.119 1766.506 262.629 1761.551 261.976 C 1756.661 261.331 1751.549 261.501 1747.142 263.734 C 1743.65 265.502 1740.6 268.566 1739.463 272.292 C 1738.747 274.637 1738.789 277.245 1739.556 279.528 C 1740.518 282.392 1742.621 284.745 1744.846 286.904 C 1756.546 298.257 1771.598 304.212 1784.534 313.439 C 1791.378 318.32 1797.629 324.117 1802.964 330.709 C 1809.619 338.931 1814.848 348.391 1817.728 358.535 C 1819.761 365.695 1820.623 373.195 1820.195 380.631 C 1819.561 391.679 1816.08 402.582 1810.653 412.257 C 1806.972 418.819 1802.396 424.815 1797.113 430.106 C 1790.656 436.572 1783.143 441.985 1775.1 446.391 C 1768.015 450.272 1760.519 453.372 1752.774 455.524 C 1745.981 457.411 1738.997 458.568 1731.955 459.285 C 1725.355 459.957 1718.704 460.242 1712.134 459.818 C 1704.338 459.315 1696.656 457.814 1688.971 455.692 C 1676.664 452.293 1664.351 447.3 1655.202 438.975 C 1643.428 428.261 1636.896 412.027 1623.418 402.349 C 1619.605 399.612 1615.237 397.399 1610.818 396.925 C 1603.887 396.182 1596.831 399.717 1590.43 403.798 C 1569.532 417.121 1555.605 436.263 1535.509 447.581 C 1526.44 452.689 1516.114 456.203 1505.667 458.265 C 1499.658 459.451 1493.608 460.156 1487.533 460.154 C 1479.967 460.151 1472.362 459.051 1465.057 456.928 C 1459.784 455.396 1454.668 453.331 1449.999 450.453 C 1445.343 447.584 1441.132 443.906 1437.843 439.528 Z M 1398.902 209.435 C 1404.278 213.228 1409.105 217.822 1413.148 223.006 C 1417.196 228.196 1420.458 233.978 1423.035 240.041 C 1425.83 246.62 1427.817 253.53 1429.029 260.555 C 1430.596 269.633 1430.869 278.904 1430.494 288.135 C 1429.798 305.234 1426.877 322.199 1421.965 338.581 C 1416.395 357.158 1408.265 374.987 1397.726 391.293 C 1389.165 404.538 1379.016 416.778 1367.144 427.149 C 1356.254 436.661 1343.914 444.601 1330.41 449.936 C 1317.662 454.973 1303.877 457.689 1290.222 456.998 C 1277.479 456.353 1264.85 452.74 1253.542 446.781 C 1247.84 443.777 1242.475 440.176 1237.741 435.879 C 1233.283 431.833 1229.386 427.169 1225.96 422.168 C 1222.335 416.877 1219.238 411.208 1217.137 405.198 C 1215.184 399.61 1214.094 393.726 1213.406 387.81 C 1212.539 380.354 1212.313 372.848 1212.826 365.403 C 1213.527 355.258 1215.601 345.224 1218.263 335.349 C 1223.646 315.376 1231.434 296.051 1241.724 278.209 C 1251.314 261.582 1263.077 246.243 1276.876 232.629 C 1288.151 221.504 1300.787 211.53 1315.12 205.25 C 1320.797 202.762 1326.741 200.853 1332.812 199.411 C 1342.538 197.099 1352.59 195.982 1362.543 196.731 C 1369.843 197.28 1377.091 198.833 1383.922 201.456 C 1389.218 203.488 1394.264 206.164 1398.902 209.435 Z M 1176.04 204.89 C 1181.386 207.705 1186.393 211.184 1190.789 215.332 C 1195.313 219.6 1199.192 224.575 1202.218 230 C 1204.62 234.305 1206.485 238.893 1207.946 243.598 C 1210.559 252.017 1211.878 260.809 1212.421 269.616 C 1212.881 277.087 1212.783 284.569 1212.196 292.011 C 1211.173 304.971 1208.666 317.813 1205.156 330.371 C 1200.32 347.675 1193.58 364.442 1184.706 380.063 C 1176.92 393.767 1167.492 406.59 1156.435 417.789 C 1150.38 423.922 1143.836 429.569 1136.83 434.589 C 1128.794 440.346 1120.15 445.278 1110.987 449.051 C 1102.673 452.474 1093.932 454.942 1085.046 456.058 C 1078.7 456.855 1072.28 456.962 1065.861 456.465 C 1054.117 455.554 1042.374 452.618 1032.033 447.082 C 1027.187 444.489 1022.649 441.324 1018.52 437.704 C 1013.711 433.488 1009.455 428.653 1005.8 423.379 C 1001.826 417.646 998.561 411.393 996.404 404.792 C 994.168 397.951 993.123 390.737 992.763 383.516 C 991.963 367.428 994.568 351.303 999.065 335.842 C 1005.016 315.381 1014.281 296.082 1025.173 277.804 C 1031.195 267.699 1037.714 257.905 1045.098 248.804 C 1050.402 242.265 1056.153 236.083 1062.353 230.33 C 1073.373 220.107 1085.816 211.238 1099.604 205.221 C 1111.903 199.854 1125.274 196.755 1138.716 196.509 C 1146.89 196.359 1155.091 197.264 1162.891 199.549 C 1167.435 200.88 1171.842 202.68 1176.04 204.89 Z M 55.15 451.417 C 49.637 448.002 44.956 442.659 43.01 436.6 C 41.155 430.824 41.785 424.398 43.184 418.341 C 45.201 409.606 48.817 401.636 52.756 393.812 C 64.052 371.373 78.013 350.127 88.235 327.156 C 91.791 319.167 94.894 310.97 97.25 302.49 C 98.987 296.238 100.318 289.833 100.07 283.334 C 99.898 278.844 98.972 274.309 96.56 270.425 C 94.578 267.233 91.591 264.481 88.147 263.349 C 84.625 262.192 80.624 262.731 76.917 263.866 C 69.36 266.18 63.031 270.972 55.232 271.296 C 51.056 271.47 46.458 270.362 43.572 267.459 C 41.854 265.731 40.742 263.367 40.264 260.945 C 39.653 257.846 40.079 254.651 40.908 251.62 C 42.884 244.396 47.151 238.105 51.728 232.144 C 64.136 215.987 78.824 202.258 94.374 189.383 C 101.024 183.877 107.832 178.527 115.288 174.228 C 119.864 171.59 124.684 169.348 129.842 167.95 C 134.256 166.753 138.918 166.174 143.376 166.988 C 147.058 167.66 150.6 169.281 153.587 171.609 C 156.464 173.852 158.825 176.751 160.431 179.959 C 164.08 187.247 163.833 196.133 168.718 203.042 C 171.255 206.63 175.176 209.685 179.216 210.254 C 183.815 210.903 188.568 208.33 192.943 205.583 C 205.87 197.468 215.508 187.838 227.092 179.72 C 233.621 175.146 240.767 171.052 248.523 168.609 C 254.623 166.687 261.1 165.786 267.416 166.724 C 272.79 167.522 278.048 169.651 282.288 173.038 C 287.925 177.543 291.762 184.272 293.629 191.287 C 295.854 199.647 295.284 208.415 293.628 216.89 C 291.043 230.12 285.813 242.638 278.803 254.006 C 273.145 263.181 266.328 271.607 257.974 278.637 C 252.172 283.519 245.629 287.728 238.32 289.385 C 233.75 290.421 228.881 290.459 224.312 289.358 C 220.074 288.335 216.095 286.331 212.581 283.763 C 204.58 277.914 198.994 269.14 190.371 264.199 C 186.618 262.048 182.288 260.624 177.986 260.648 C 173.341 260.675 168.726 262.391 164.744 264.907 C 158.677 268.738 154.076 274.424 150.505 280.596 C 147.085 286.507 144.61 292.863 142.997 299.445 C 141.544 305.377 140.791 311.491 140.713 317.586 C 140.322 348.123 156.866 378.165 152.413 408.444 C 151.126 417.19 148.089 425.955 142.904 433.136 C 138.941 438.623 133.725 443.185 127.943 446.737 C 121.852 450.479 115.133 453.101 108.244 454.844 C 98.368 457.342 88.142 458.035 77.811 457.384 C 69.884 456.884 61.894 455.594 55.15 451.417 Z M 811.142 451.996 C 805.804 448.882 801.028 444.266 798.819 438.685 C 796.685 433.292 796.949 426.997 798.22 421.163 C 799.572 414.96 802.061 409.278 804.754 403.703 C 817.472 377.375 834.735 353.455 846.62 326.247 C 852.361 313.106 856.847 299.199 856.47 284.88 C 856.346 280.158 855.693 275.391 853.352 271.207 C 851.417 267.75 848.33 264.691 844.663 263.536 C 841.823 262.641 838.635 262.89 835.684 263.684 C 828.722 265.556 823.077 270.46 815.81 271.027 C 811.602 271.355 806.851 270.229 804.115 267.32 C 801.269 264.294 800.605 259.339 801.151 254.906 C 802.081 247.363 806.517 241.334 811.183 235.64 C 824.621 219.242 839.963 205.63 856.831 192.854 C 865.913 185.975 875.438 179.339 886.442 176.788 C 890.797 175.779 895.384 175.409 899.767 176.316 C 903.4 177.068 906.894 178.697 909.744 181.073 C 912.947 183.744 915.338 187.357 916.765 191.321 C 918.946 197.378 918.876 204.252 922.585 209.394 C 925.007 212.752 929.041 215.371 933.11 215.948 C 937.511 216.572 941.954 214.808 946.12 212.706 C 961.943 204.72 973.781 191.848 990.071 186.991 C 995.287 185.435 1000.959 184.702 1006.322 185.674 C 1009.821 186.308 1013.188 187.668 1016.206 189.606 C 1019.449 191.688 1022.291 194.437 1024.293 197.681 C 1025.998 200.442 1027.095 203.561 1027.834 206.742 C 1030.17 216.805 1028.916 227.481 1025.981 237.466 C 1023.086 247.313 1018.557 256.488 1012.728 264.774 C 1008.42 270.898 1003.401 276.536 997.541 281.286 C 993.434 284.615 988.914 287.508 983.859 289.033 C 978.765 290.569 973.127 290.715 968.018 289.231 C 964.006 288.066 960.321 285.896 957.142 283.196 C 950.852 277.853 946.544 270.436 939.649 265.884 C 936.211 263.613 932.129 262.055 928.024 261.943 C 923.578 261.822 919.105 263.398 915.303 265.818 C 909.711 269.377 905.569 274.761 902.492 280.594 C 897.411 290.226 895.237 301.082 894.532 311.892 C 892.358 345.235 904.164 378.144 899.342 411.386 C 897.939 421.059 895.128 430.76 889.503 438.651 C 886.009 443.552 881.429 447.755 876.228 450.817 C 871.675 453.498 866.646 455.304 861.52 456.495 C 853.627 458.328 845.504 458.701 837.315 458.337 C 828.231 457.932 819.067 456.62 811.142 451.996 Z M 687.49 267.296 C 685.101 262.856 681.06 259.259 676.554 256.902 C 670.71 253.843 664.086 252.87 657.481 252.521 C 646.979 251.967 636.526 252.992 626.545 255.866 C 618.668 258.136 611.084 261.557 604.172 265.995 C 596.464 270.945 589.59 277.16 583.729 284.223 C 577.052 292.27 571.69 301.419 568.065 311.216 C 565.538 318.045 563.855 325.188 563.883 332.565 C 563.908 339.017 565.242 345.647 568.656 350.984 C 571.562 355.526 575.974 359.132 580.825 361.664 C 585.846 364.285 591.338 365.756 596.911 366.358 C 605.083 367.241 613.429 366.254 621.367 364.004 C 630.187 361.504 638.503 357.443 645.986 352.211 C 652.593 347.591 658.551 342.057 663.789 335.959 C 671.646 326.811 677.881 316.392 683.165 305.428 C 686.602 298.295 689.636 290.931 690.266 283.002 C 690.693 277.626 690.015 271.99 687.49 267.296 Z M 1284.227 353.306 C 1289.303 358.036 1295.765 361.233 1302.501 362.8 C 1310.368 364.63 1318.608 364.236 1326.551 362.594 C 1333.391 361.181 1340.01 358.842 1345.939 355.318 C 1352.045 351.688 1357.418 346.8 1361.967 341.248 C 1368.251 333.579 1372.963 324.643 1375.665 315.166 C 1377.664 308.154 1378.563 300.845 1378.226 293.521 C 1377.928 287.053 1376.667 280.572 1373.86 274.775 C 1371.006 268.882 1366.554 263.694 1361.159 259.889 C 1355.794 256.106 1349.497 253.689 1343.028 252.824 C 1336.241 251.917 1329.266 252.719 1322.698 254.706 C 1316.377 256.618 1310.432 259.627 1305.109 263.466 C 1299.915 267.212 1295.314 271.747 1291.24 276.706 C 1286.003 283.081 1281.638 290.157 1278.325 297.706 C 1275.605 303.905 1273.593 310.424 1272.702 317.155 C 1271.887 323.315 1272.01 329.654 1273.648 335.657 C 1275.467 342.326 1279.155 348.581 1284.227 353.306 Z M 1064.111 352.54 C 1068.933 357.512 1075.374 360.956 1082.092 362.569 C 1089.037 364.236 1096.278 363.946 1103.377 362.865 C 1109.931 361.868 1116.365 360.197 1122.237 357.344 C 1128.597 354.255 1134.298 349.779 1139.346 344.687 C 1144.277 339.713 1148.584 334.15 1151.773 328.023 C 1155.289 321.269 1157.447 313.828 1158.633 306.161 C 1160.057 296.965 1160.081 287.443 1157.073 278.72 C 1154.827 272.207 1150.891 266.14 1145.612 261.696 C 1140.744 257.598 1134.735 254.881 1128.496 253.621 C 1121.25 252.157 1113.694 252.658 1106.533 254.494 C 1100.318 256.088 1094.401 258.687 1089.059 262.15 C 1083.081 266.025 1077.823 270.98 1073.21 276.452 C 1068.125 282.484 1063.824 289.145 1060.526 296.276 C 1057.614 302.575 1055.485 309.241 1054.454 316.155 C 1053.364 323.47 1053.502 331.063 1055.691 338.111 C 1057.353 343.465 1060.199 348.505 1064.111 352.54 Z M 308.061 376.969 C 311.67 381.931 317.262 385.347 323.156 387.271 C 329.529 389.351 336.255 389.687 342.843 388.986 C 348.846 388.348 354.734 386.848 360.307 384.602 C 368.443 381.323 375.906 376.453 382.724 370.876 C 389.833 365.061 396.239 358.478 401.85 351.244 C 409.018 342.002 414.889 331.699 418.653 320.525 C 421.155 313.099 422.726 305.288 421.861 297.478 C 421.193 291.453 419.075 285.428 415.195 280.81 C 410.702 275.463 403.848 272.001 397.24 270.342 C 391.444 268.887 385.837 268.819 379.045 269.231 C 374.295 269.519 368.965 270.042 367.082 273.637 C 365.917 275.862 366.072 279.265 367.412 281.522 C 370.888 287.38 382.339 285.524 385.601 290.936 C 386.99 293.239 386.895 296.859 385.744 299.652 C 384.123 303.588 380.404 305.881 376.66 307.927 C 364.494 314.576 352.065 318.619 340.337 324.528 C 333.269 328.09 326.455 332.329 320.124 337.6 C 313.311 343.271 307.057 350.136 304.842 358.515 C 303.974 361.799 303.726 365.315 304.377 368.656 C 304.96 371.649 306.265 374.5 308.061 376.969 Z" fill="#FFFFFF" fill-rule="evenodd" shape-rendering="geometricPrecision" stroke="#FFFFFF"/>
</svg>
