<svg xmlns="http://www.w3.org/2000/svg" width="2048" height="2048" viewBox="0 0 2048 2048" role="img" aria-labelledby="title desc">
  <title id="title">Radroots</title>
  <desc id="desc">Radroots favicon</desc>
  <path d="M 1024 0 L 1330.632 0.494 L 1428.409 1.975 L 1499.235 4.448 L 1556.592 7.916 L 1605.471 12.387 L 1648.352 17.87 L 1686.667 24.377 L 1721.326 31.921 L 1752.948 40.521 L 1781.974 50.195 L 1808.729 60.97 L 1833.46 72.873 L 1856.359 85.939 L 1877.578 100.208 L 1897.24 115.728 L 1915.444 132.556 L 1932.272 150.76 L 1947.792 170.422 L 1962.061 191.641 L 1975.127 214.54 L 1987.03 239.271 L 1997.805 266.026 L 2007.479 295.052 L 2016.079 326.674 L 2023.623 361.333 L 2030.13 399.648 L 2035.613 442.529 L 2040.084 491.408 L 2043.552 548.765 L 2046.025 619.591 L 2047.506 717.368 L 2048 1024 L 2047.506 1330.632 L 2046.025 1428.409 L 2043.552 1499.235 L 2040.084 1556.592 L 2035.613 1605.471 L 2030.13 1648.352 L 2023.623 1686.667 L 2016.079 1721.326 L 2007.479 1752.948 L 1997.805 1781.974 L 1987.03 1808.729 L 1975.127 1833.46 L 1962.061 1856.359 L 1947.792 1877.578 L 1932.272 1897.24 L 1915.444 1915.444 L 1897.24 1932.272 L 1877.578 1947.792 L 1856.359 1962.061 L 1833.46 1975.127 L 1808.729 1987.03 L 1781.974 1997.805 L 1752.948 2007.479 L 1721.326 2016.079 L 1686.667 2023.623 L 1648.352 2030.13 L 1605.471 2035.613 L 1556.592 2040.084 L 1499.235 2043.552 L 1428.409 2046.025 L 1330.632 2047.506 L 1024 2048 L 717.368 2047.506 L 619.591 2046.025 L 548.765 2043.552 L 491.408 2040.084 L 442.529 2035.613 L 399.648 2030.13 L 361.333 2023.623 L 326.674 2016.079 L 295.052 2007.479 L 266.026 1997.805 L 239.271 1987.03 L 214.54 1975.127 L 191.641 1962.061 L 170.422 1947.792 L 150.76 1932.272 L 132.556 1915.444 L 115.728 1897.24 L 100.208 1877.578 L 85.939 1856.359 L 72.873 1833.46 L 60.97 1808.729 L 50.195 1781.974 L 40.521 1752.948 L 31.921 1721.326 L 24.377 1686.667 L 17.87 1648.352 L 12.387 1605.471 L 7.916 1556.592 L 4.448 1499.235 L 1.975 1428.409 L 0.494 1330.632 L 0 1024 L 0.494 717.368 L 1.975 619.591 L 4.448 548.765 L 7.916 491.408 L 12.387 442.529 L 17.87 399.648 L 24.377 361.333 L 31.921 326.674 L 40.521 295.052 L 50.195 266.026 L 60.97 239.271 L 72.873 214.54 L 85.939 191.641 L 100.208 170.422 L 115.728 150.76 L 132.556 132.556 L 150.76 115.728 L 170.422 100.208 L 191.641 85.939 L 214.54 72.873 L 239.271 60.97 L 266.026 50.195 L 295.052 40.521 L 326.674 31.921 L 361.333 24.377 L 399.648 17.87 L 442.529 12.387 L 491.408 7.916 L 548.765 4.448 L 619.591 1.975 L 717.368 0.494 Z" fill="#55993F"/>
  <g transform="translate(122.88 122.88) scale(0.88)">
    <path clip-rule="evenodd" d="M 1310.041 210.194 C 1300.26 207.245 1290.276 204.967 1280.191 203.323 C 1270.098 201.678 1259.904 200.669 1249.684 200.296 C 1239.481 199.924 1229.252 200.186 1219.091 201.186 C 1208.958 202.184 1198.893 203.916 1189.023 206.424 C 1179.172 208.927 1169.515 212.204 1160.192 216.255 C 1150.893 220.295 1141.925 225.106 1133.456 230.682 C 1125.013 236.241 1117.066 242.56 1109.781 249.566 C 1102.492 256.576 1095.866 264.274 1089.931 272.46 C 1083.955 280.704 1078.68 289.443 1073.922 298.44 C 1069.122 307.516 1064.849 316.855 1060.795 326.283 C 1056.723 335.754 1052.872 345.314 1048.901 354.827 C 1044.933 364.335 1040.844 373.795 1036.384 383.084 C 1031.938 392.345 1027.125 401.436 1021.83 410.242 C 1016.545 419.03 1010.782 427.533 1004.564 435.687 C 998.346 443.84 991.672 451.645 984.604 459.074 C 977.535 466.503 970.072 473.557 962.235 480.17 C 954.4 486.781 946.192 492.952 937.656 498.628 C 929.113 504.309 920.241 509.493 911.134 514.217 C 902.005 518.951 892.64 523.222 883.134 527.14 C 873.602 531.068 863.929 534.641 854.204 538.059 C 844.467 541.48 834.678 544.744 824.938 548.154 C 815.223 551.555 805.557 555.1 796.062 559.08 C 786.626 563.036 777.361 567.421 768.442 572.444 C 759.58 577.435 751.061 583.055 743.078 589.363 C 735.128 595.645 727.711 602.611 720.98 610.19 C 714.265 617.75 708.234 625.92 703.024 634.585 C 697.814 643.25 693.425 652.41 689.877 661.874 C 686.306 671.398 683.588 681.231 681.482 691.179 C 679.357 701.22 677.857 711.379 676.587 721.559 C 675.31 731.784 674.265 742.032 673.017 752.261 C 671.772 762.459 670.325 772.638 668.328 782.717 C 666.339 792.753 663.805 802.69 660.647 812.425 C 657.49 822.156 653.71 831.685 649.374 840.952 C 645.033 850.229 640.134 859.243 634.756 867.959 C 629.367 876.692 623.496 885.125 617.255 893.269 C 610.994 901.441 604.36 909.321 597.517 917.011 C 590.652 924.725 583.576 932.247 576.448 939.718 C 569.315 947.195 562.129 954.622 555.051 962.154 C 547.991 969.667 541.038 977.284 534.403 985.178 C 527.803 993.03 521.519 1001.155 515.762 1009.647 C 510.043 1018.084 504.845 1026.882 500.382 1036.052 C 495.956 1045.144 492.253 1054.6 489.529 1064.341 C 486.825 1074.007 485.085 1083.955 484.444 1093.975 C 483.805 1103.971 484.259 1114.04 485.791 1123.94 C 487.325 1133.86 489.941 1143.61 493.514 1152.988 C 497.107 1162.416 501.668 1171.468 506.993 1180.036 C 512.349 1188.656 518.478 1196.786 525.193 1204.389 C 531.948 1212.037 539.296 1219.151 547.045 1225.785 C 554.841 1232.458 563.043 1238.645 571.491 1244.466 C 579.972 1250.31 588.702 1255.786 597.596 1260.978 C 606.506 1266.179 615.581 1271.094 624.775 1275.774 C 633.979 1280.46 643.302 1284.909 652.705 1289.18 C 662.116 1293.455 671.607 1297.551 681.15 1301.521 C 690.698 1305.493 700.298 1309.338 709.92 1313.125 C 719.542 1316.912 729.187 1320.64 738.798 1324.457 C 748.401 1328.27 757.971 1332.172 767.447 1336.293 C 776.914 1340.41 786.287 1344.745 795.53 1349.344 C 804.763 1353.937 813.865 1358.792 822.788 1363.963 C 831.7 1369.128 840.432 1374.606 848.938 1380.412 C 857.439 1386.215 865.715 1392.344 873.772 1398.758 C 881.789 1405.141 889.591 1411.806 897.414 1418.379 C 904.907 1424.674 912.421 1430.886 920.692 1436.377 C 927.8 1441.097 935.468 1445.286 944.002 1446.184 C 951.044 1446.925 958.675 1445.426 964.3 1441.342 C 970.253 1437.02 973.959 1429.804 975.733 1422.45 C 977.822 1413.794 977.233 1404.947 975.285 1396.461 C 973.142 1387.13 969.355 1378.235 964.555 1369.971 C 959.55 1361.351 953.444 1353.419 946.697 1346.103 C 939.815 1338.639 932.266 1331.817 924.315 1325.518 C 916.281 1319.154 907.837 1313.323 899.171 1307.859 C 890.454 1302.363 881.512 1297.239 872.518 1292.212 C 863.507 1287.176 854.445 1282.237 845.494 1277.097 C 836.564 1271.969 827.744 1266.641 819.18 1260.92 C 810.653 1255.222 802.381 1249.134 794.498 1242.571 C 786.649 1236.035 779.186 1229.027 772.251 1221.525 C 765.339 1214.049 758.951 1206.081 753.22 1197.664 C 747.496 1189.257 742.428 1180.401 738.066 1171.214 C 733.698 1162.013 730.038 1152.479 727.048 1142.742 C 724.054 1132.99 721.732 1123.035 720.086 1112.968 C 718.44 1102.893 717.471 1092.707 717.162 1082.503 C 716.852 1072.281 717.204 1062.041 718.153 1051.858 C 719.103 1041.669 720.652 1031.538 722.818 1021.537 C 724.981 1011.548 727.76 1001.69 731.187 992.062 C 734.613 982.436 738.688 973.04 743.348 963.947 C 748.015 954.839 753.269 946.036 759.009 937.564 C 764.757 929.082 770.991 920.932 777.665 913.159 C 784.345 905.378 791.465 897.975 798.933 890.949 C 806.425 883.902 814.268 877.235 822.313 870.829 C 830.387 864.399 838.664 858.233 847.008 852.161 C 855.367 846.078 863.792 840.088 872.184 834.051 C 880.571 828.017 888.925 821.936 897.149 815.68 C 905.36 809.435 913.441 803.017 921.309 796.343 C 929.166 789.678 936.81 782.759 944.196 775.574 C 951.582 768.391 958.71 760.943 965.587 753.272 C 972.471 745.592 979.105 737.689 985.525 729.618 C 991.954 721.537 998.169 713.289 1004.206 704.913 C 1010.249 696.529 1016.113 688.018 1021.891 679.449 C 1027.672 670.874 1033.365 662.241 1039.087 653.627 C 1044.805 645.016 1050.551 636.424 1056.454 627.939 C 1062.345 619.471 1068.392 611.109 1074.733 602.971 C 1081.055 594.858 1087.669 586.967 1094.652 579.413 C 1101.617 571.879 1108.949 564.68 1116.665 557.915 C 1124.362 551.166 1132.44 544.847 1140.881 539.052 C 1149.297 533.274 1158.073 528.016 1167.183 523.409 C 1176.267 518.814 1185.682 514.866 1195.34 511.649 C 1204.997 508.432 1214.897 505.946 1224.921 504.174 C 1234.951 502.401 1245.105 501.343 1255.285 501.03 C 1265.455 500.718 1275.65 501.149 1285.751 502.38 C 1295.844 503.611 1305.843 505.641 1315.608 508.473 C 1325.379 511.306 1334.916 514.942 1344.11 519.295 C 1353.323 523.656 1362.191 528.738 1370.652 534.42 C 1379.133 540.115 1387.205 546.412 1394.84 553.196 C 1402.496 559.999 1409.713 567.291 1416.529 574.933 C 1423.369 582.602 1429.806 590.622 1435.95 598.855 C 1442.116 607.116 1447.986 615.591 1453.806 624.098 C 1459.63 632.614 1465.404 641.162 1471.416 649.548 C 1477.404 657.9 1483.627 666.091 1490.297 673.914 C 1496.924 681.687 1503.991 689.098 1511.585 695.933 C 1519.149 702.742 1527.235 708.981 1535.758 714.545 C 1544.289 720.115 1553.257 725.009 1562.521 729.251 C 1571.797 733.498 1581.369 737.09 1591.142 740.013 C 1600.909 742.934 1610.875 745.186 1620.952 746.727 C 1631.004 748.264 1641.166 749.093 1651.338 749.118 C 1661.419 749.142 1671.51 748.376 1681.434 746.558 C 1691.172 744.774 1700.748 741.978 1709.771 737.878 C 1718.599 733.865 1726.896 728.604 1734.111 722.116 C 1741.252 715.695 1747.333 708.073 1751.999 699.676 C 1756.685 691.245 1759.944 682.032 1761.746 672.56 C 1763.565 662.995 1763.898 653.166 1762.891 643.487 C 1761.875 633.719 1759.493 624.105 1755.942 614.955 C 1752.357 605.72 1747.581 596.959 1741.902 588.851 C 1736.143 580.628 1729.456 573.078 1722.215 566.133 C 1714.863 559.082 1706.94 552.654 1698.707 546.669 C 1690.392 540.625 1681.761 535.033 1672.982 529.693 C 1664.16 524.328 1655.189 519.218 1646.193 514.152 C 1637.192 509.083 1628.167 504.057 1619.243 498.852 C 1610.343 493.66 1601.542 488.289 1592.988 482.544 C 1584.462 476.818 1576.18 470.719 1568.249 464.192 C 1560.333 457.678 1552.767 450.737 1545.619 443.387 C 1538.474 436.04 1531.749 428.285 1525.448 420.205 C 1519.128 412.099 1513.236 403.667 1507.594 395.077 C 1501.93 386.452 1496.517 377.669 1491.079 368.902 C 1485.636 360.127 1480.168 351.367 1474.482 342.748 C 1468.805 334.141 1462.91 325.675 1456.708 317.435 C 1450.52 309.215 1444.027 301.221 1437.152 293.565 C 1430.289 285.923 1423.046 278.617 1415.445 271.708 C 1407.843 264.799 1399.883 258.285 1391.623 252.177 C 1383.369 246.073 1374.816 240.375 1365.986 235.138 C 1357.174 229.913 1348.086 225.147 1338.738 220.95 C 1329.413 216.764 1319.828 213.144 1310.041 210.194 Z M 840.855 206.727 C 831.652 206.274 822.424 206.397 813.229 206.999 C 804.018 207.602 794.84 208.686 785.744 210.245 C 776.644 211.805 767.624 213.841 758.733 216.326 C 749.828 218.816 741.052 221.756 732.416 225.058 C 723.77 228.365 715.264 232.034 706.917 236.037 C 698.572 240.039 690.386 244.374 682.411 249.07 C 674.437 253.764 666.675 258.818 659.144 264.191 C 651.603 269.571 644.294 275.271 637.183 281.205 C 630.067 287.144 623.148 293.318 616.443 299.717 C 609.741 306.111 603.252 312.729 597.026 319.588 C 590.803 326.442 584.842 333.536 579.182 340.862 C 573.522 348.188 568.162 355.746 563.104 363.5 C 558.043 371.258 553.284 379.212 548.805 387.32 C 544.322 395.436 540.12 403.706 536.149 412.083 C 532.174 420.47 528.43 428.964 524.766 437.491 C 521.1 446.021 517.514 454.584 513.767 463.079 C 510.028 471.557 506.129 479.968 501.892 488.211 C 497.67 496.425 493.111 504.472 488.123 512.248 C 483.149 520.001 477.748 527.484 471.907 534.608 C 466.067 541.731 459.787 548.495 453.15 554.881 C 446.493 561.285 439.477 567.31 432.232 573.038 C 424.96 578.789 417.458 584.242 409.863 589.557 C 402.248 594.886 394.54 600.077 386.84 605.28 C 379.138 610.484 371.443 615.7 363.83 621.036 C 356.224 626.366 348.701 631.816 341.327 637.464 C 333.963 643.104 326.748 648.942 319.751 655.032 C 312.761 661.116 305.988 667.451 299.466 674.034 C 292.945 680.614 286.675 687.442 280.678 694.503 C 274.685 701.558 268.965 708.845 263.577 716.371 C 258.192 723.893 253.139 731.653 248.425 739.613 C 243.711 747.576 239.337 755.739 235.3 764.065 C 231.264 772.392 227.565 780.883 224.222 789.511 C 220.879 798.138 217.892 806.903 215.282 815.78 C 212.671 824.657 210.437 833.646 208.576 842.711 C 206.713 851.782 205.224 860.93 204.071 870.119 C 202.918 879.312 202.102 888.546 201.637 897.799 C 201.171 907.051 201.056 916.32 201.291 925.58 C 201.527 934.844 202.113 944.099 203.001 953.323 C 203.889 962.56 205.08 971.765 206.46 980.94 C 207.842 990.129 209.415 999.288 211.033 1008.438 C 212.651 1017.59 214.315 1026.733 215.861 1035.898 C 217.403 1045.041 218.827 1054.206 219.933 1063.414 C 221.034 1072.588 221.819 1081.804 222.128 1091.04 C 222.437 1100.261 222.272 1109.501 221.654 1118.705 C 221.034 1127.937 219.958 1137.133 218.667 1146.294 C 217.373 1155.488 215.861 1164.645 214.402 1173.813 C 212.943 1182.979 211.535 1192.156 210.374 1201.365 C 209.215 1210.554 208.301 1219.776 207.761 1229.024 C 207.224 1238.237 207.058 1247.476 207.411 1256.701 C 207.763 1265.869 208.628 1275.023 210.183 1284.069 C 211.725 1293.045 213.947 1301.914 216.977 1310.507 C 219.986 1319.042 223.794 1327.306 228.42 1335.087 C 233.033 1342.845 238.46 1350.124 244.586 1356.755 C 250.713 1363.39 257.54 1369.377 264.909 1374.6 C 272.275 1379.821 280.183 1384.279 288.472 1387.85 C 296.776 1391.427 305.461 1394.114 314.31 1395.958 C 323.237 1397.818 332.329 1398.819 341.436 1399.199 C 350.628 1399.582 359.835 1399.331 369.005 1398.674 C 378.232 1398.012 387.422 1396.938 396.601 1395.793 C 405.799 1394.645 414.987 1393.426 424.207 1392.475 C 433.407 1391.526 442.639 1390.845 451.886 1390.597 C 461.107 1390.35 470.343 1390.535 479.541 1391.243 C 488.717 1391.95 497.856 1393.177 506.88 1394.987 C 515.889 1396.794 524.782 1399.182 533.482 1402.139 C 542.178 1405.096 550.681 1408.622 558.924 1412.675 C 567.171 1416.73 575.158 1421.313 582.821 1426.384 C 590.497 1431.462 597.848 1437.03 604.859 1442.99 C 611.895 1448.971 618.589 1455.347 625.003 1461.988 C 631.441 1468.654 637.597 1475.585 643.591 1482.65 C 649.596 1489.729 655.438 1496.943 661.315 1504.129 C 667.179 1511.302 673.078 1518.447 679.239 1525.369 C 685.359 1532.247 691.739 1538.905 698.538 1545.119 C 705.286 1551.284 712.447 1557.013 720.048 1562.094 C 727.613 1567.151 735.613 1571.567 743.95 1575.22 C 752.264 1578.863 760.913 1581.749 769.765 1583.766 C 778.577 1585.774 787.589 1586.922 796.629 1587.079 C 805.597 1587.235 814.591 1586.416 823.359 1584.499 C 831.989 1582.611 840.399 1579.658 848.227 1575.54 C 855.757 1571.578 862.749 1566.537 868.517 1560.217 C 873.901 1554.318 878.219 1547.305 880.326 1539.636 C 882.378 1532.168 882.333 1524.077 880.516 1516.532 C 878.569 1508.444 874.585 1500.983 869.772 1494.215 C 864.596 1486.937 858.461 1480.461 851.896 1474.474 C 845.12 1468.295 837.886 1462.638 830.411 1457.33 C 822.871 1451.975 815.087 1446.975 807.129 1442.269 C 799.154 1437.551 791.004 1433.129 782.729 1428.959 C 774.443 1424.784 766.031 1420.862 757.528 1417.148 C 749.017 1413.431 740.415 1409.923 731.76 1406.555 C 723.097 1403.182 714.38 1399.949 705.65 1396.754 C 696.917 1393.557 688.169 1390.397 679.445 1387.174 C 670.724 1383.95 662.025 1380.662 653.379 1377.241 C 644.737 1373.82 636.147 1370.267 627.622 1366.561 C 619.101 1362.858 610.646 1359.003 602.276 1354.969 C 593.911 1350.938 585.632 1346.728 577.459 1342.32 C 569.291 1337.915 561.228 1333.314 553.3 1328.49 C 545.379 1323.671 537.592 1318.63 529.983 1313.332 C 522.382 1308.04 514.957 1302.491 507.753 1296.669 C 500.557 1290.854 493.58 1284.766 486.875 1278.391 C 480.179 1272.024 473.753 1265.37 467.652 1258.43 C 461.558 1251.499 455.788 1244.282 450.388 1236.797 C 444.995 1229.321 439.971 1221.577 435.377 1213.586 C 430.79 1205.606 426.631 1197.378 422.966 1188.934 C 419.306 1180.502 416.14 1171.853 413.531 1163.038 C 410.926 1154.232 408.878 1145.26 407.428 1136.192 C 405.979 1127.128 405.128 1117.968 404.888 1108.792 C 404.648 1099.612 405.02 1090.416 405.975 1081.283 C 406.931 1072.136 408.471 1063.051 410.547 1054.091 C 412.626 1045.118 415.242 1036.271 418.381 1027.612 C 421.522 1018.947 425.187 1010.472 429.332 1002.24 C 433.483 993.997 438.117 985.998 443.128 978.248 C 448.153 970.478 453.557 962.959 459.238 955.657 C 464.93 948.342 470.899 941.244 477.082 934.341 C 483.275 927.427 489.681 920.707 496.173 914.072 C 502.673 907.429 509.258 900.871 515.789 894.258 C 522.317 887.65 528.791 880.988 535.088 874.157 C 541.363 867.348 547.463 860.373 553.209 853.109 C 558.924 845.884 564.289 838.373 569.121 830.528 C 573.932 822.716 578.214 814.572 581.878 806.159 C 585.542 797.747 588.588 789.066 591.047 780.227 C 593.516 771.356 595.394 762.327 596.81 753.232 C 598.233 744.094 599.19 734.89 599.962 725.676 C 600.736 716.439 601.325 707.191 602.12 697.955 C 602.913 688.747 603.911 679.551 605.412 670.429 C 606.906 661.35 608.898 652.345 611.48 643.511 C 614.059 634.688 617.226 626.036 620.906 617.612 C 624.591 609.175 628.791 600.966 633.432 593.015 C 638.078 585.056 643.166 577.357 648.678 569.972 C 654.192 562.585 660.131 555.514 666.445 548.798 C 672.768 542.073 679.468 535.705 686.474 529.697 C 693.489 523.68 700.811 518.024 708.39 512.737 C 715.976 507.446 723.82 502.525 731.856 497.946 C 739.904 493.36 748.145 489.116 756.523 485.164 C 764.909 481.209 773.433 477.546 782.058 474.146 C 790.694 470.741 799.431 467.6 808.211 464.586 C 816.999 461.57 825.83 458.682 834.637 455.72 C 843.434 452.762 852.207 449.729 860.887 446.442 C 869.538 443.166 878.097 439.638 886.474 435.707 C 894.803 431.799 902.953 427.493 910.771 422.636 C 918.53 417.816 925.962 412.452 932.877 406.479 C 939.748 400.545 946.108 394.009 951.765 386.902 C 957.378 379.85 962.299 372.236 966.26 364.136 C 970.183 356.114 973.165 347.616 974.979 338.869 C 976.781 330.177 977.43 321.239 976.863 312.377 C 976.297 303.542 974.523 294.782 971.596 286.427 C 968.668 278.069 964.588 270.117 959.554 262.834 C 954.489 255.504 948.458 248.853 941.758 242.985 C 934.993 237.06 927.545 231.934 919.68 227.588 C 911.734 223.197 903.362 219.603 894.769 216.685 C 886.104 213.743 877.214 211.488 868.215 209.849 C 859.177 208.203 850.028 207.179 840.855 206.727 Z M 1089.405 752.428 C 1083.061 752.245 1076.323 754.382 1071.651 758.559 C 1066.468 763.193 1063.825 770.338 1062.777 777.412 C 1061.533 785.811 1062.535 794.111 1064.736 802.071 C 1067.138 810.756 1070.966 819.037 1075.627 826.766 C 1080.468 834.795 1086.208 842.229 1092.474 849.175 C 1098.839 856.231 1105.746 862.784 1113.003 868.912 C 1120.311 875.083 1127.974 880.822 1135.849 886.245 C 1143.758 891.691 1151.881 896.817 1160.115 901.753 C 1168.369 906.7 1176.736 911.456 1185.121 916.176 C 1193.507 920.896 1201.913 925.581 1210.226 930.432 C 1218.513 935.267 1226.708 940.266 1234.658 945.642 C 1242.564 950.988 1250.228 956.706 1257.485 962.909 C 1264.701 969.078 1271.515 975.726 1277.78 982.863 C 1284.016 989.967 1289.707 997.554 1294.714 1005.573 C 1299.709 1013.573 1304.024 1022.001 1307.556 1030.746 C 1311.091 1039.5 1313.842 1048.57 1315.816 1057.801 C 1317.798 1067.07 1318.997 1076.501 1319.509 1085.964 C 1320.023 1095.463 1319.844 1104.994 1319.04 1114.47 C 1318.235 1123.964 1316.801 1133.402 1314.784 1142.713 C 1312.767 1152.028 1310.165 1161.216 1306.997 1170.205 C 1303.831 1179.187 1300.1 1187.97 1295.808 1196.471 C 1291.517 1204.97 1286.666 1213.187 1281.318 1221.063 C 1275.962 1228.952 1270.108 1236.5 1263.85 1243.693 C 1257.58 1250.901 1250.904 1257.753 1243.908 1264.255 C 1236.892 1270.776 1229.553 1276.944 1222.02 1282.857 C 1214.459 1288.792 1206.702 1294.469 1198.887 1300.063 C 1191.059 1305.666 1183.173 1311.186 1175.344 1316.787 C 1167.523 1322.381 1159.759 1328.057 1152.161 1333.952 C 1144.579 1339.834 1137.163 1345.935 1130.006 1352.328 C 1122.857 1358.714 1115.966 1365.391 1109.392 1372.367 C 1102.816 1379.346 1096.558 1386.625 1090.605 1394.141 C 1084.641 1401.672 1078.984 1409.441 1073.543 1417.356 C 1068.091 1425.286 1062.856 1433.363 1057.725 1441.503 C 1052.588 1449.654 1047.555 1457.869 1042.551 1466.1 C 1037.544 1474.335 1032.566 1482.587 1027.579 1490.833 C 1022.593 1499.077 1017.599 1507.316 1012.532 1515.511 C 1007.472 1523.697 1002.34 1531.839 997.021 1539.86 C 991.714 1547.863 986.221 1555.746 980.436 1563.412 C 974.664 1571.061 968.602 1578.495 962.218 1585.642 C 955.843 1592.779 949.146 1599.63 942.124 1606.134 C 935.116 1612.625 927.785 1618.77 920.114 1624.464 C 912.464 1630.143 904.476 1635.374 896.18 1640.064 C 887.903 1644.744 879.32 1648.885 870.488 1652.41 C 861.67 1655.929 852.605 1658.835 843.38 1661.081 C 834.157 1663.327 824.773 1664.915 815.326 1665.838 C 805.877 1666.76 796.364 1667.018 786.88 1666.606 C 777.4 1666.194 767.949 1665.112 758.626 1663.348 C 749.306 1661.585 740.114 1659.14 731.149 1656.042 C 722.175 1652.942 713.429 1649.188 704.976 1644.866 C 696.508 1640.536 688.335 1635.636 680.502 1630.243 C 672.653 1624.84 665.147 1618.942 658.002 1612.64 C 650.83 1606.316 644.022 1599.585 637.504 1592.591 C 630.96 1585.568 624.708 1578.28 618.634 1570.85 C 612.551 1563.408 606.647 1555.824 600.689 1548.281 C 594.748 1540.758 588.753 1533.276 582.422 1526.077 C 576.135 1518.928 569.516 1512.057 562.432 1505.69 C 555.4 1499.37 547.909 1493.545 539.96 1488.416 C 532.053 1483.314 523.694 1478.901 514.987 1475.325 C 506.302 1471.758 497.27 1469.026 488.059 1467.2 C 478.854 1465.376 469.469 1464.458 460.083 1464.46 C 450.716 1464.463 441.348 1465.382 432.173 1467.28 C 423.052 1469.166 414.123 1472.021 405.649 1475.892 C 397.227 1479.739 389.255 1484.592 382.015 1490.369 C 374.813 1496.117 368.334 1502.78 362.839 1510.178 C 357.366 1517.545 352.868 1525.64 349.533 1534.191 C 346.204 1542.726 344.034 1551.714 343.108 1560.828 C 342.182 1569.947 342.501 1579.191 344.029 1588.226 C 345.562 1597.291 348.311 1606.145 352.092 1614.521 C 355.902 1622.962 360.761 1630.917 366.401 1638.259 C 372.097 1645.674 378.59 1652.464 385.643 1658.592 C 392.773 1664.786 400.475 1670.304 408.487 1675.292 C 416.592 1680.339 425.015 1684.844 433.504 1689.208 C 442.035 1693.593 450.632 1697.837 459.107 1702.328 C 467.555 1706.806 475.881 1711.529 483.921 1716.708 C 491.935 1721.87 499.665 1727.485 507.016 1733.555 C 514.382 1739.638 521.366 1746.179 528.056 1752.996 C 534.78 1759.848 541.206 1766.981 547.582 1774.156 C 553.97 1781.346 560.307 1788.579 566.794 1795.679 C 573.275 1802.772 579.906 1809.732 586.76 1816.467 C 593.605 1823.194 600.673 1829.695 607.991 1835.904 C 615.302 1842.106 622.864 1848.016 630.653 1853.606 C 638.445 1859.198 646.466 1864.47 654.663 1869.449 C 662.863 1874.43 671.239 1879.119 679.779 1883.491 C 688.308 1887.857 697.001 1891.907 705.868 1895.538 C 714.72 1899.164 723.746 1902.372 732.914 1905.107 C 742.079 1907.842 751.385 1910.103 760.779 1911.905 C 770.172 1913.706 779.653 1915.048 789.177 1915.919 C 798.697 1916.789 808.261 1917.189 817.822 1917.101 C 827.371 1917.013 836.917 1916.438 846.4 1915.313 C 855.868 1914.191 865.272 1912.52 874.541 1910.289 C 883.809 1908.058 892.941 1905.268 901.875 1901.944 C 910.803 1898.622 919.532 1894.766 927.984 1890.376 C 936.426 1885.991 944.592 1881.073 952.401 1875.638 C 960.204 1870.207 967.65 1864.26 974.65 1857.829 C 981.659 1851.39 988.222 1844.465 994.34 1837.175 C 1000.483 1829.856 1006.179 1822.169 1011.517 1814.246 C 1016.875 1806.292 1021.872 1798.1 1026.627 1789.774 C 1031.397 1781.424 1035.923 1772.939 1040.396 1764.428 C 1044.87 1755.914 1049.29 1747.374 1053.907 1738.935 C 1058.507 1730.529 1063.302 1722.224 1068.524 1714.187 C 1073.721 1706.19 1079.34 1698.459 1085.446 1691.13 C 1091.539 1683.817 1098.116 1676.905 1105.11 1670.447 C 1112.107 1663.988 1119.522 1657.983 1127.273 1652.453 C 1135.036 1646.915 1143.136 1641.854 1151.494 1637.267 C 1159.875 1632.668 1168.514 1628.545 1177.315 1624.815 C 1186.148 1621.071 1195.143 1617.723 1204.202 1614.57 C 1213.276 1611.411 1222.414 1608.449 1231.508 1605.344 C 1240.573 1602.25 1249.593 1599.015 1258.43 1595.312 C 1267.204 1591.634 1275.797 1587.496 1284.03 1582.719 C 1292.204 1577.976 1300.024 1572.604 1307.309 1566.581 C 1314.559 1560.586 1321.281 1553.946 1327.343 1546.749 C 1333.392 1539.568 1338.785 1531.833 1343.417 1523.666 C 1348.056 1515.488 1351.933 1506.876 1355.036 1498.004 C 1358.163 1489.065 1360.503 1479.861 1362.31 1470.569 C 1364.135 1461.184 1365.415 1451.709 1366.585 1442.224 C 1367.761 1432.699 1368.827 1423.164 1370.168 1413.662 C 1371.506 1404.185 1373.119 1394.74 1375.263 1385.41 C 1377.401 1376.113 1380.066 1366.931 1383.314 1357.96 C 1386.562 1348.99 1390.393 1340.231 1394.744 1331.741 C 1399.101 1323.238 1403.978 1315.004 1409.295 1307.068 C 1414.625 1299.113 1420.397 1291.458 1426.462 1284.05 C 1432.549 1276.616 1438.932 1269.431 1445.417 1262.343 C 1451.915 1255.239 1458.516 1248.231 1465.061 1241.17 C 1471.602 1234.114 1478.087 1227.005 1484.375 1219.722 C 1490.64 1212.465 1496.711 1205.035 1502.396 1197.311 C 1508.046 1189.635 1513.317 1181.67 1518.01 1173.372 C 1522.678 1165.117 1526.775 1156.532 1530.178 1147.675 C 1533.565 1138.86 1536.264 1129.775 1538.127 1120.515 C 1539.982 1111.295 1541.009 1101.901 1541.119 1092.497 C 1541.229 1083.093 1540.424 1073.678 1538.76 1064.422 C 1537.092 1055.141 1534.561 1046.019 1531.262 1037.186 C 1527.957 1028.334 1523.88 1019.772 1519.115 1011.614 C 1514.339 1003.439 1508.87 995.67 1502.83 988.38 C 1496.767 981.064 1490.129 974.232 1483.07 967.876 C 1475.982 961.494 1468.47 955.593 1460.662 950.118 C 1452.835 944.63 1444.711 939.571 1436.359 934.927 C 1427.991 930.274 1419.394 926.038 1410.645 922.153 C 1401.868 918.256 1392.939 914.713 1383.95 911.334 C 1374.936 907.946 1365.864 904.723 1356.783 901.523 C 1347.694 898.321 1338.598 895.142 1329.518 891.918 C 1320.44 888.694 1311.378 885.425 1302.362 882.032 C 1293.353 878.642 1284.39 875.128 1275.513 871.405 C 1266.647 867.686 1257.867 863.757 1249.22 859.552 C 1240.581 855.352 1232.076 850.874 1223.732 846.116 C 1215.391 841.359 1207.211 836.321 1199.203 831.02 C 1191.2 825.724 1183.369 820.165 1175.747 814.339 C 1168.133 808.518 1160.728 802.43 1153.489 796.131 C 1146.297 789.873 1139.269 783.408 1132.132 777.15 C 1125.359 771.211 1118.487 765.46 1110.748 760.481 C 1104.236 756.292 1097.11 752.649 1089.405 752.428 Z M 1249.233 584.75 C 1240.561 585.255 1231.941 586.64 1223.541 588.859 C 1215.149 591.076 1206.979 594.125 1199.19 597.96 C 1191.458 601.767 1184.101 606.35 1177.379 611.755 C 1170.801 617.045 1164.831 623.122 1159.945 630.025 C 1155.221 636.699 1151.512 644.144 1149.403 652.051 C 1147.335 659.8 1146.804 667.992 1147.874 675.936 C 1148.966 684.046 1151.728 691.897 1155.516 699.148 C 1159.472 706.722 1164.546 713.641 1170.158 720.058 C 1175.936 726.664 1182.282 732.738 1188.957 738.419 C 1195.699 744.158 1202.775 749.495 1210.09 754.478 C 1217.427 759.476 1225.004 764.117 1232.747 768.458 C 1240.506 772.809 1248.431 776.859 1256.458 780.691 C 1264.498 784.53 1272.641 788.15 1280.859 791.593 C 1289.082 795.037 1297.379 798.304 1305.74 801.396 C 1314.105 804.49 1322.535 807.409 1330.996 810.232 C 1339.463 813.056 1347.962 815.784 1356.463 818.504 C 1364.965 821.225 1373.469 823.939 1381.95 826.724 C 1390.427 829.506 1398.88 832.359 1407.277 835.374 C 1415.664 838.385 1423.995 841.558 1432.233 844.957 C 1440.461 848.352 1448.597 851.973 1456.6 855.868 C 1464.594 859.758 1472.456 863.921 1480.145 868.381 C 1487.828 872.837 1495.339 877.591 1502.645 882.641 C 1509.945 887.688 1517.042 893.031 1523.895 898.671 C 1530.744 904.306 1537.35 910.236 1543.667 916.461 C 1549.98 922.682 1556.005 929.196 1561.705 935.983 C 1567.404 942.769 1572.779 949.827 1577.798 957.13 C 1582.813 964.426 1587.474 971.966 1591.701 979.745 C 1595.92 987.509 1599.707 995.512 1602.997 1003.714 C 1606.287 1011.916 1609.079 1020.317 1611.394 1028.846 C 1613.712 1037.386 1615.55 1046.054 1616.924 1054.795 C 1618.298 1063.535 1619.206 1072.348 1619.58 1081.186 C 1619.953 1090.009 1619.794 1098.858 1619.072 1107.659 C 1618.35 1116.458 1617.067 1125.209 1615.273 1133.852 C 1613.477 1142.51 1611.17 1151.058 1608.44 1159.467 C 1605.706 1167.893 1602.548 1176.178 1599.007 1184.297 C 1595.464 1192.417 1591.537 1200.37 1587.222 1208.107 C 1582.905 1215.847 1578.199 1223.371 1573.144 1230.65 C 1568.079 1237.945 1562.663 1244.994 1557.002 1251.835 C 1551.325 1258.697 1545.401 1265.351 1539.376 1271.908 C 1533.34 1278.478 1527.202 1284.952 1521.076 1291.436 C 1514.955 1297.915 1508.845 1304.405 1502.893 1311.041 C 1496.965 1317.649 1491.192 1324.402 1485.766 1331.43 C 1480.367 1338.422 1475.312 1345.687 1470.73 1353.244 C 1466.165 1360.771 1462.071 1368.588 1458.57 1376.666 C 1455.074 1384.732 1452.17 1393.058 1449.877 1401.543 C 1447.574 1410.067 1445.888 1418.752 1444.598 1427.485 C 1443.298 1436.275 1442.4 1445.114 1441.521 1453.954 C 1440.641 1462.804 1439.781 1471.656 1438.592 1480.47 C 1437.408 1489.252 1435.897 1497.997 1433.908 1506.635 C 1431.925 1515.25 1429.466 1523.759 1426.528 1532.099 C 1423.592 1540.431 1420.177 1548.595 1416.282 1556.525 C 1412.389 1564.45 1408.016 1572.141 1403.177 1579.527 C 1398.337 1586.913 1393.032 1593.993 1387.319 1600.726 C 1381.601 1607.465 1375.475 1613.856 1369.018 1619.89 C 1362.553 1625.931 1355.756 1631.614 1348.681 1636.926 C 1341.6 1642.243 1334.24 1647.187 1326.656 1651.758 C 1319.064 1656.333 1311.247 1660.533 1303.254 1664.363 C 1295.251 1668.198 1287.071 1671.661 1278.771 1674.795 C 1270.452 1677.936 1262.012 1680.747 1253.534 1683.429 C 1245.045 1686.116 1236.519 1688.674 1228.04 1691.394 C 1219.587 1694.105 1211.18 1696.975 1202.925 1700.247 C 1194.731 1703.494 1186.686 1707.137 1178.95 1711.372 C 1171.304 1715.558 1163.961 1720.322 1157.181 1725.809 C 1150.483 1731.231 1144.336 1737.358 1139.025 1744.152 C 1133.763 1750.883 1129.322 1758.27 1125.941 1766.122 C 1122.589 1773.909 1120.279 1782.153 1119.178 1790.562 C 1118.084 1798.924 1118.186 1807.449 1119.505 1815.78 C 1120.824 1824.116 1123.362 1832.258 1126.962 1839.887 C 1130.591 1847.576 1135.299 1854.745 1140.776 1861.243 C 1146.326 1867.827 1152.666 1873.723 1159.501 1878.954 C 1166.413 1884.244 1173.832 1888.854 1181.584 1892.801 C 1189.388 1896.774 1197.529 1900.075 1205.872 1902.724 C 1214.258 1905.387 1222.848 1907.391 1231.526 1908.839 C 1240.236 1910.293 1249.035 1911.187 1257.856 1911.573 C 1266.687 1911.959 1275.54 1911.835 1284.356 1911.209 C 1293.181 1910.581 1301.968 1909.45 1310.672 1907.861 C 1319.379 1906.272 1328.002 1904.225 1336.491 1901.721 C 1344.981 1899.217 1353.336 1896.256 1361.515 1892.875 C 1369.703 1889.49 1377.716 1885.684 1385.535 1881.517 C 1393.359 1877.347 1400.989 1872.815 1408.388 1867.932 C 1415.785 1863.051 1422.951 1857.819 1429.848 1852.253 C 1436.746 1846.687 1443.375 1840.787 1449.709 1834.585 C 1456.045 1828.38 1462.085 1821.874 1467.816 1815.106 C 1473.55 1808.333 1478.974 1801.298 1484.088 1794.047 C 1489.208 1786.787 1494.017 1779.31 1498.531 1771.66 C 1503.052 1763.998 1507.276 1756.163 1511.272 1748.215 C 1515.275 1740.253 1519.049 1732.178 1522.696 1724.048 C 1526.344 1715.914 1529.865 1707.724 1533.459 1699.565 C 1537.043 1691.427 1540.701 1683.319 1544.703 1675.376 C 1548.682 1667.479 1553.002 1659.744 1557.82 1652.326 C 1562.618 1644.938 1567.91 1637.863 1573.682 1631.206 C 1579.459 1624.545 1585.716 1618.301 1592.336 1612.48 C 1598.986 1606.632 1606.003 1601.211 1613.232 1596.101 C 1620.498 1590.966 1627.979 1586.146 1635.531 1581.445 C 1643.103 1576.733 1650.747 1572.14 1658.36 1567.495 C 1665.969 1562.851 1673.548 1558.154 1681.016 1553.285 C 1688.473 1548.423 1695.82 1543.389 1703.004 1538.13 C 1710.181 1532.877 1717.194 1527.399 1724.007 1521.682 C 1730.815 1515.968 1737.423 1510.016 1743.801 1503.827 C 1750.179 1497.639 1756.327 1491.216 1762.226 1484.57 C 1768.124 1477.925 1773.773 1471.059 1779.157 1463.991 C 1784.542 1456.922 1789.662 1449.652 1794.504 1442.2 C 1799.345 1434.75 1803.909 1427.118 1808.153 1419.312 C 1812.395 1411.507 1816.317 1403.528 1819.892 1395.397 C 1823.469 1387.263 1826.698 1378.976 1829.601 1370.578 C 1832.504 1362.176 1835.08 1353.662 1837.331 1345.063 C 1839.58 1336.465 1841.504 1327.782 1843.061 1319.033 C 1844.617 1310.287 1845.807 1301.475 1846.629 1292.63 C 1847.453 1283.782 1847.909 1274.9 1848.042 1266.014 C 1848.175 1257.124 1847.985 1248.23 1847.489 1239.354 C 1846.993 1230.471 1846.191 1221.605 1845.182 1212.766 C 1844.171 1203.911 1842.953 1195.082 1841.702 1186.258 C 1840.45 1177.428 1839.166 1168.604 1838.026 1159.759 C 1836.887 1150.927 1835.893 1142.074 1835.184 1133.196 C 1834.477 1124.336 1834.056 1115.451 1833.993 1106.561 C 1833.93 1097.683 1834.226 1088.8 1834.892 1079.946 C 1835.559 1071.083 1836.597 1062.249 1837.874 1053.454 C 1839.153 1044.641 1840.672 1035.866 1842.158 1027.085 C 1843.643 1018.311 1845.095 1009.531 1846.259 1000.709 C 1847.419 991.917 1848.294 983.082 1848.733 974.221 C 1849.171 965.399 1849.177 956.55 1848.607 947.732 C 1848.041 938.969 1846.905 930.235 1845.077 921.644 C 1843.26 913.103 1840.759 904.702 1837.53 896.585 C 1834.322 888.519 1830.394 880.733 1825.698 873.429 C 1821.036 866.177 1815.616 859.401 1809.476 853.346 C 1803.355 847.309 1796.519 841.989 1789.16 837.544 C 1781.773 833.083 1773.86 829.504 1765.673 826.786 C 1757.416 824.046 1748.881 822.183 1740.264 821.029 C 1731.558 819.863 1722.77 819.419 1713.992 819.424 C 1705.128 819.428 1696.275 819.889 1687.433 820.462 C 1678.55 821.039 1669.678 821.728 1660.792 822.242 C 1651.914 822.756 1643.022 823.095 1634.128 823.093 C 1625.25 823.092 1616.371 822.752 1607.522 822.016 C 1598.688 821.281 1589.886 820.151 1581.16 818.581 C 1572.449 817.015 1563.815 815.011 1555.319 812.53 C 1546.829 810.052 1538.478 807.099 1530.315 803.693 C 1522.152 800.287 1514.178 796.429 1506.436 792.15 C 1498.695 787.872 1491.187 783.174 1483.962 778.074 C 1476.733 772.971 1469.789 767.467 1463.147 761.62 C 1456.496 755.766 1450.148 749.568 1444.13 743.067 C 1438.102 736.556 1432.406 729.741 1426.999 722.707 C 1421.577 715.653 1416.446 708.379 1411.453 701.016 C 1406.45 693.637 1401.585 686.169 1396.665 678.735 C 1391.755 671.315 1386.791 663.928 1381.55 656.734 C 1376.342 649.584 1370.86 642.624 1364.934 636.052 C 1359.049 629.526 1352.726 623.382 1345.943 617.788 C 1339.193 612.221 1331.986 607.199 1324.387 602.857 C 1316.813 598.529 1308.849 594.876 1300.608 592.01 C 1292.382 589.149 1283.881 587.073 1275.257 585.846 C 1266.647 584.622 1257.915 584.245 1249.233 584.75 Z" fill="#FFFFFF" fill-rule="evenodd" shape-rendering="geometricPrecision"/>
  </g>
</svg>
